<!--?xml version="1.0" standalone="no"?-->
              <svg id="sw-js-blob-svg" viewBox="0 0 100 100" xmlns="http://www.w3.org/2000/svg" version="1.1">
                    <defs> 
                        <linearGradient id="sw-gradient" x1="0" x2="1" y1="1" y2="0">
                            <stop id="stop1" stop-color="rgba(238, 188, 29, 1)" offset="0%"></stop>
                            <stop id="stop2" stop-color="rgba(251, 251, 251, 1)" offset="100%"></stop>
                        </linearGradient>
                    </defs>
                <path fill="url(#sw-gradient)" d="M19,-31.6C25.6,-29.2,32.5,-26,37.1,-20.6C41.7,-15.2,44.1,-7.6,43.6,-0.3C43,7,39.7,14,35.3,19.8C31,25.7,25.6,30.4,19.5,34.2C13.5,38.1,6.7,41.2,-0.4,41.9C-7.6,42.6,-15.2,41,-20.6,36.8C-26.1,32.6,-29.5,25.8,-31.3,19.2C-33.1,12.6,-33.3,6.3,-33.6,-0.2C-34,-6.7,-34.5,-13.5,-32.2,-19.3C-30,-25.1,-25.1,-30.1,-19.3,-32.9C-13.5,-35.7,-6.7,-36.4,-0.3,-36C6.2,-35.6,12.5,-34,19,-31.6Z" width="100%" height="100%" transform="translate(50 50)" stroke-width="0" style="transition: all 0.3s ease 0s;"></path>
              </svg>